# xmcd
#
# Track frame offsets: 
#        150
#        10357
#        19875
#        33572
#        44710
#        55000
#        64845
#        76530
#        87117
#        100630
#        113250
#        123135
#        134410
#        145242
#        156477
#        169920
#        181042
#        192182
#        203122
#        217992
#        231177
#        244182
#        256342
#        266010
#        276717
#        288582
#        299390
#        309520
#        321692
#
# Disc length: 4429 seconds
#
# Revision: 2
# Processed by: cddbd v1.5.2PL0 Copyright (c) Steve Scherf et al.
# Submitted via: ExactAudioCopyFreeDBPlugin 1.0
#
DISCID=ad114b1d
DTITLE=Various Artist - Hi Records:  Rivertown Blues and The R'n'B Sess
DTITLE=ions and The Soul Years
DYEAR=1999
DGENRE=Rhythm and Blues
TTITLE0=Donald Hines - I'm So Glad
TTITLE1=Donald Hines - Baby Tell It Like It Is
TTITLE2=Donald Hines - Stormy Monday Blues
TTITLE3=Donald Hines - Please Accept My Love
TTITLE4=Donald Hines - You Had to Pay
TTITLE5=Donald Hines - Trouble is My Name
TTITLE6=Big Amos Patton - He Won't Bite Me Twice
TTITLE7=Big Amos Patton - Move with Me Baby
TTITLE8=Big Amos Patton - Going to Vietnam
TTITLE9=Big Amos Patton - I'm Gone
TTITLE10=Big Amos Patton - Dog Man
TTITLE11=Big Amos Patton - You're Too Young
TTITLE12=Big Lucky Carter - Stop Arguin' Over Me
TTITLE13=Big Lucky Carter - Miss Betty Green
TTITLE14=Big Lucky Carter - Goofer Dust
TTITLE15=Big Lucky Carter - I've Been Hurt
TTITLE16=Big Lucky Carter - Please Don't Leave
TTITLE17=Big Lucky Carter - You'd Better Mind
TTITLE18=Joe Lee Carter - Please Mr. Foreman
TTITLE19=Joe Lee Carter - As the Years Go Passing By
TTITLE20=Joe Lee Carter - I Can't Stand It
TTITLE21=Joe Lee Carter - Let Me Know
TTITLE22=Don Bryant - Don't Turn Your Back on Me
TTITLE23=Don Bryant - The Call of Distress
TTITLE24=Don Bryant - Is That Asking Too Much?
TTITLE25=Don Bryant - There is Something on Your Mind (Part 1)
TTITLE26=Willie Mitchell - Prayer Meeting
TTITLE27=Gene "Bowlegs" Miller - I Was Wrong
TTITLE28=Gene "Bowlegs" Miller - What Do You Mean
EXTD=
EXTT0=
EXTT1=
EXTT2=
EXTT3=
EXTT4=
EXTT5=
EXTT6=
EXTT7=
EXTT8=
EXTT9=
EXTT10=
EXTT11=
EXTT12=
EXTT13=
EXTT14=
EXTT15=
EXTT16=
EXTT17=
EXTT18=
EXTT19=
EXTT20=
EXTT21=
EXTT22=
EXTT23=
EXTT24=
EXTT25=
EXTT26=
EXTT27=
EXTT28=
PLAYORDER=
